<svg width="18" height="18" viewBox="0 0 18 18" fill="none" xmlns="http://www.w3.org/2000/svg">
<path opacity="0.4" d="M17 9C17 4.589 13.411 1 9 1C4.589 1 1 4.589 1 9C1 13.411 4.589 17 9 17C13.411 17 17 13.411 17 9Z" fill="#626262"/>
<path d="M7.46999 6.53003C7.17699 6.23703 7.17699 5.76199 7.46999 5.46899C7.61599 5.32299 7.80799 5.24902 7.99999 5.24902C8.19199 5.24902 8.38399 5.32199 8.52999 5.46899L11.53 8.46899C11.823 8.76199 11.823 9.23703 11.53 9.53003L8.52999 12.53C8.23699 12.823 7.76199 12.823 7.46899 12.53C7.17599 12.237 7.17599 11.762 7.46899 11.469L9.93899 8.99902L7.46899 6.52899L7.46999 6.53003Z" fill="#626262"/>
</svg>
