<svg width="18" height="18" viewBox="0 0 18 18" fill="none" xmlns="http://www.w3.org/2000/svg">
<path d="M9 1C4.589 1 1 4.589 1 9C1 13.411 4.589 17 9 17C13.411 17 17 13.411 17 9C17 4.589 13.411 1 9 1Z" fill="#BDBDBD"/>
<path d="M6.53003 10.53C6.23703 10.823 5.76199 10.823 5.46899 10.53C5.32299 10.384 5.24902 10.192 5.24902 9.99998C5.24902 9.80798 5.32199 9.61598 5.46899 9.46998L8.46899 6.46998C8.76199 6.17698 9.23703 6.17698 9.53003 6.46998L12.53 9.46998C12.823 9.76298 12.823 10.238 12.53 10.531C12.237 10.824 11.762 10.824 11.469 10.531L8.99902 8.06098L6.52899 10.531L6.53003 10.53Z" fill="#626262"/>
</svg>
